<svg xmlns="http://www.w3.org/2000/svg" width="1024" height="1024" viewBox="0 0 1024 1024">
  <defs>
    <clipPath id="clipC_v3">
      <rect x="0" y="0" width="1024" height="1024" rx="220" ry="220"></rect>
    </clipPath>

    <linearGradient id="bgC_v3" x1="0.10" y1="0.92" x2="0.92" y2="0.10">
      <stop offset="0" stop-color="#22C55E"></stop>
      <stop offset="1" stop-color="#3B82F6"></stop>
    </linearGradient>

    <radialGradient id="glassFill_v3" cx="30%" cy="18%" r="90%">
      <stop offset="0" stop-color="#FFFFFF" stop-opacity="0.20"></stop>
      <stop offset="0.45" stop-color="#FFFFFF" stop-opacity="0.10"></stop>
      <stop offset="1" stop-color="#FFFFFF" stop-opacity="0.06"></stop>
    </radialGradient>

    <linearGradient id="barFill_v3" x1="0" y1="0" x2="0" y2="1">
      <stop offset="0" stop-color="#FFFFFF" stop-opacity="0.35"></stop>
      <stop offset="1" stop-color="#FFFFFF" stop-opacity="0.82"></stop>
    </linearGradient>

    <filter id="shadowC_v3" x="-20%" y="-20%" width="140%" height="140%">
      <feGaussianBlur in="SourceAlpha" stdDeviation="14" result="b"></feGaussianBlur>
      <feOffset in="b" dx="0" dy="16" result="o"></feOffset>
      <feColorMatrix in="o" type="matrix" values="0 0 0 0 0
                0 0 0 0 0
                0 0 0 0 0
                0 0 0 0.25 0" result="s"></feColorMatrix>
      <feMerge><feMergeNode in="s"></feMergeNode><feMergeNode in="SourceGraphic"></feMergeNode></feMerge>
    </filter>

    <filter id="softGlow_v3" x="-20%" y="-20%" width="140%" height="140%">
      <feGaussianBlur stdDeviation="6" result="g"></feGaussianBlur>
      <feMerge><feMergeNode in="g"></feMergeNode><feMergeNode in="SourceGraphic"></feMergeNode></feMerge>
    </filter>
  </defs>

  <g clip-path="url(#clipC_v3)">
    <rect width="1024" height="1024" fill="url(#bgC_v3)"></rect>
    <rect x="12" y="12" width="1000" height="1000" rx="208" ry="208" fill="none" stroke="#FFFFFF" stroke-opacity="0.10" stroke-width="18"></rect>

    <g filter="url(#shadowC_v3)">
      <rect x="170" y="210" width="684" height="630" rx="96" fill="url(#glassFill_v3)" stroke="#FFFFFF" stroke-opacity="0.20" stroke-width="3"></rect>
      <rect x="188" y="228" width="648" height="102" rx="70" fill="#FFFFFF" opacity="0.10"></rect>
    </g>

    <g opacity="0.30">
      <path d="M260 608 H774 M260 704 H774 M260 800 H774" stroke="#FFFFFF" stroke-width="2" opacity="0.55"></path>
      <path d="M368 570 V834 M476 570 V834 M584 570 V834" stroke="#FFFFFF" stroke-width="2" opacity="0.35"></path>
      <path d="M260 834 H774" stroke="#FFFFFF" stroke-width="3" opacity="0.70"></path>
    </g>

    <g filter="url(#shadowC_v3)">
      <rect x="280" y="694" width="64" height="140" rx="26" fill="url(#barFill_v3)" stroke="#FFFFFF" stroke-opacity="0.30" stroke-width="2"></rect>
      <rect x="396" y="614" width="64" height="220" rx="26" fill="url(#barFill_v3)" stroke="#FFFFFF" stroke-opacity="0.30" stroke-width="2"></rect>
      <rect x="512" y="654" width="64" height="180" rx="26" fill="url(#barFill_v3)" stroke="#FFFFFF" stroke-opacity="0.30" stroke-width="2"></rect>
      <rect x="628" y="554" width="64" height="280" rx="26" fill="url(#barFill_v3)" stroke="#FFFFFF" stroke-opacity="0.30" stroke-width="2"></rect>
      <rect x="744" y="594" width="64" height="240" rx="26" fill="url(#barFill_v3)" stroke="#FFFFFF" stroke-opacity="0.30" stroke-width="2"></rect>
    </g>

    <g filter="url(#softGlow_v3)">
      <path d="M312 729 L428 669 L544 699 L660 624 L776 654" fill="none" stroke="#FFFFFF" stroke-opacity="0.30" stroke-width="22" stroke-linecap="round" stroke-linejoin="round"></path>
      <path d="M312 729 L428 669 L544 699 L660 624 L776 654" fill="none" stroke="#FFFFFF" stroke-opacity="0.86" stroke-width="10" stroke-linecap="round" stroke-linejoin="round"></path>
      <circle cx="776" cy="654" r="12" fill="#FFFFFF" opacity="0.92"></circle>
      <circle cx="776" cy="654" r="22" fill="#FFFFFF" opacity="0.22"></circle>
    </g>

    <g filter="url(#shadowC_v3)">
      <rect x="255" y="260" width="112" height="530" rx="56" fill="#FFFFFF" opacity="0.94"></rect>
      <rect x="255" y="260" width="470" height="112" rx="56" fill="#FFFFFF" opacity="0.94"></rect>
      <rect x="255" y="470" width="380" height="112" rx="56" fill="#FFFFFF" opacity="0.94"></rect>
    </g>
  </g>
</svg>
